<svg xmlns="http://www.w3.org/2000/svg" width="22" height="22" viewBox="0 0 22 22">
  <path fill-opacity=".84" d="M9.24633094,14.8997706 L16.2202068,7.92591927 C16.4392087,7.70689279 16.7929564,7.70767977 17.011614,7.92633735 C17.2298289,8.14455225 17.2304929,8.49935744 17.0120566,8.71776909 L9.8001192,15.9297065 C9.65514265,16.0746831 9.4510688,16.1233775 9.26622678,16.0762325 C9.08313088,16.1290831 8.87745847,16.0870288 8.72753871,15.9471923 L4.83151853,12.3141219 C4.60491736,12.1027931 4.5925962,11.7476682 4.80308886,11.521977 C5.01397501,11.2958185 5.3684113,11.2835465 5.59528299,11.4950967 L9.24633094,14.8997706 Z M9.11200322,16.1342477 C8.96223102,16.1342477 8.81469679,16.0780769 8.70282261,15.9737283 L4.80677783,12.3406333 C4.56593724,12.1159996 4.55236183,11.7376834 4.77657746,11.4972609 C4.88418883,11.3812321 5.03378405,11.3131304 5.19195554,11.3081642 C5.35141744,11.3026554 5.50325547,11.3597114 5.62002369,11.4686098 L9.24544558,14.8494038 L16.1945562,7.90029322 C16.307119,7.78773043 16.4565469,7.72575572 16.6153939,7.72575572 L16.616058,7.72575572 C16.7750034,7.72592788 16.9245789,7.78805014 17.0372154,7.90073589 C17.1496552,8.01317572 17.2116791,8.16275118 17.2118021,8.32196715 C17.2119497,8.48128149 17.1500733,8.63097991 17.0376089,8.74341974 L9.82572065,15.9553572 C9.68010469,16.1009977 9.46678382,16.1612017 9.26676783,16.113737 C9.21586004,16.1275091 9.16379637,16.1342477 9.11200322,16.1342477 Z M5.21271215,11.3803205 C5.20663765,11.3803205 5.20053855,11.3804189 5.19443945,11.3806402 C5.05551125,11.3849857 4.92411257,11.4447993 4.82960026,11.5467177 C4.63263383,11.7579235 4.64458609,12.0902752 4.85623463,12.2876105 L8.75227941,15.92073 C8.88874672,16.0479749 9.07715475,16.0931279 9.25619278,16.0414086 L9.26563655,16.0386541 L9.27517869,16.0411135 C9.45593824,16.087201 9.64257556,16.0359981 9.77446856,15.9040805 L16.9863814,8.69214305 C17.0850983,8.59342619 17.1394245,8.46197588 17.1393015,8.32201633 C17.1391294,8.18217975 17.0847048,8.05075403 16.9859633,7.95201258 C16.886976,7.85302521 16.7555502,7.79842844 16.6159596,7.79828088 L16.6153939,7.79828088 C16.4759017,7.79828088 16.3446973,7.8527055 16.2458083,7.95156991 L9.24721629,14.9501619 L5.5705423,11.5216327 C5.47239108,11.430097 5.34595777,11.3803205 5.21271215,11.3803205 Z M10.9800241,22.9599991 C9.49791873,22.9599991 8.05990882,22.6696279 6.70598284,22.0969767 C5.39841493,21.5439017 4.2242156,20.7522732 3.21597076,19.7440529 C2.20775051,18.7358081 1.41607283,17.5615842 0.86304696,16.2540408 C0.29037117,14.9001149 0,13.4621049 0,11.9799995 C0,10.4978941 0.29037117,9.05990882 0.86304696,7.70595825 C1.41607283,6.39841493 2.20775051,5.2242156 3.21597076,4.21597076 C4.2242156,3.20775051 5.39841493,2.41607283 6.70598284,1.86304696 C8.05990882,1.29037117 9.49791873,1 10.9800241,1 C12.4621295,1 13.9001149,1.29037117 15.2540654,1.86304696 C16.5616087,2.41607283 17.7358081,3.20775051 18.7440529,4.21597076 C19.7522732,5.2242156 20.5439263,6.39841493 21.0969767,7.70598284 C21.6696525,9.05990882 21.9599991,10.4979187 21.9599991,11.9800241 C21.9599991,13.4621049 21.6696279,14.9001149 21.0969767,16.2540654 C20.5439263,17.5615842 19.7522732,18.7358081 18.7440529,19.7440529 C17.7358081,20.7522732 16.5616087,21.5439017 15.2540408,22.0969767 C13.9001149,22.6696279 12.4621295,22.9599991 10.9799995,22.9599991 L10.9800241,22.9599991 Z M10.9800241,1.8700806 C9.61498206,1.8700806 8.29101053,2.13730962 7.04490086,2.66436515 C5.8410668,3.17356605 4.75982953,3.90258041 3.83121727,4.83119267 C2.90258041,5.75980494 2.17356605,6.84104221 1.66438974,8.04487627 C1.13735881,9.29101053 0.87010519,10.6149575 0.87010519,11.9799749 C0.87010519,13.3449924 1.13733422,14.668964 1.66438974,15.9150982 C2.17359064,17.1189323 2.902605,18.200145 3.83121727,19.1287818 C4.75985412,20.0574187 5.8410668,20.786433 7.04490086,21.2955848 C8.29103512,21.8226649 9.61498206,22.0898939 10.9800241,22.0898939 C12.3450416,22.0898939 13.6690132,21.8226649 14.9151228,21.2955848 C16.1189569,20.7864084 17.2001696,20.0573941 18.1288064,19.1287818 C19.0574433,18.2001696 19.786433,17.1189569 20.2956339,15.9150982 C20.8226649,14.668964 21.0899185,13.345017 21.0899185,11.9799749 C21.0899185,10.6149329 20.8226649,9.29098593 20.2956339,8.04487627 C19.786433,6.84104221 19.0574187,5.75980494 18.1288064,4.83119267 C17.2001696,3.90255582 16.1189815,3.17354146 14.9151228,2.66436515 C13.6689886,2.13733422 12.3450416,1.8700806 10.9800241,1.8700806 Z" transform="translate(0 -1)"/>
</svg>
