<svg xmlns="http://www.w3.org/2000/svg" width="158" height="96" viewBox="0 0 158 96">
  <defs>
    <linearGradient id="catalog-image-a" x1="50%" x2="50%" y1="99.98%" y2="0%">
      <stop offset="0%" stop-color="gray" stop-opacity=".25"/>
      <stop offset="54%" stop-color="gray" stop-opacity=".12"/>
      <stop offset="100%" stop-color="gray" stop-opacity=".1"/>
    </linearGradient>
    <linearGradient id="catalog-image-b" x1="51233%" x2="51233%" y1="18373%" y2="13464%">
      <stop offset="0%" stop-color="gray" stop-opacity=".25"/>
      <stop offset="54%" stop-color="gray" stop-opacity=".12"/>
      <stop offset="100%" stop-color="gray" stop-opacity=".1"/>
    </linearGradient>
    <linearGradient id="catalog-image-c" x1="58927%" x2="58927%" y1="12987%" y2="8079%">
      <stop offset="0%" stop-color="gray" stop-opacity=".25"/>
      <stop offset="54%" stop-color="gray" stop-opacity=".12"/>
      <stop offset="100%" stop-color="gray" stop-opacity=".1"/>
    </linearGradient>
    <linearGradient id="catalog-image-d" x1="51126%" x2="51126%" y1="4930%" y2="21%">
      <stop offset="0%" stop-color="gray" stop-opacity=".25"/>
      <stop offset="54%" stop-color="gray" stop-opacity=".12"/>
      <stop offset="100%" stop-color="gray" stop-opacity=".1"/>
    </linearGradient>
    <linearGradient id="catalog-image-e" x1="43454%" x2="43454%" y1="4909%" y2="0%">
      <stop offset="0%" stop-color="gray" stop-opacity=".25"/>
      <stop offset="54%" stop-color="gray" stop-opacity=".12"/>
      <stop offset="100%" stop-color="gray" stop-opacity=".1"/>
    </linearGradient>
    <linearGradient id="catalog-image-f" x1="36529%" x2="36529%" y1="9140%" y2="4232%">
      <stop offset="0%" stop-color="gray" stop-opacity=".25"/>
      <stop offset="54%" stop-color="gray" stop-opacity=".12"/>
      <stop offset="100%" stop-color="gray" stop-opacity=".1"/>
    </linearGradient>
    <linearGradient id="catalog-image-g" x1="35141%" x2="35141%" y1="72919%" y2="20818%">
      <stop offset="0%" stop-color="gray" stop-opacity=".25"/>
      <stop offset="54%" stop-color="gray" stop-opacity=".12"/>
      <stop offset="100%" stop-color="gray" stop-opacity=".1"/>
    </linearGradient>
    <linearGradient id="catalog-image-h" x1="82656%" x2="82656%" y1="73052%" y2="22056%">
      <stop offset="0%" stop-color="gray" stop-opacity=".25"/>
      <stop offset="54%" stop-color="gray" stop-opacity=".12"/>
      <stop offset="100%" stop-color="gray" stop-opacity=".1"/>
    </linearGradient>
  </defs>
  <g fill="none">
    <path fill="#E3E9D1" d="M130.5 63C145.686501 62.9999999 157.998119 75.7852231 158 91.5578729L158 92 103 92 103 91.5578729C103.001881 75.7852231 115.313499 62.9999999 130.5 63zM27.5 63.0035366C42.6865008 63.0035365 54.9981193 75.7872005 55 91.5579268L55 92 0 92 0 91.5579268C-1.85997282e-15 75.7858194 12.3121694 63 27.5 63L27.5 63.0035366z"/>
    <rect width="9" height="9" x="70" y="15" fill="url(#catalog-image-a)"/>
    <rect width="9" height="7" x="72" y="15" fill="#F5F5F5"/>
    <rect width="9" height="9" x="83" y="23" fill="url(#catalog-image-b)"/>
    <rect width="9" height="7" x="83" y="23" fill="#F5F5F5"/>
    <rect width="9" height="9" x="96" y="14" fill="url(#catalog-image-c)"/>
    <rect width="9" height="7" x="96" y="14" fill="#F5F5F5"/>
    <rect width="9" height="9" x="83" fill="url(#catalog-image-d)"/>
    <rect width="9" height="7" x="83" fill="#7CFCFF"/>
    <rect width="9" height="9" x="70" fill="url(#catalog-image-e)"/>
    <rect width="9" height="7" x="70" fill="#FFFFA5"/>
    <rect width="9" height="9" x="58" y="6" fill="url(#catalog-image-f)"/>
    <rect width="9" height="7" x="58" y="6" fill="#FF69B4"/>
    <path fill="url(#catalog-image-g)" d="M54.1897916,91.4260854 L51.7888672,90.0632075 C49.2748984,88.6657827 48.67762,86.6827867 48.6607477,85.152356 C48.6638044,84.8934811 48.6823989,84.6350433 48.7164262,84.3785039 L52.0554491,70.8360924 C52.0554491,70.8360924 55.7842215,62.9265641 50.5909357,60.6101899 C46.5938942,58.825839 36.9851345,56.0620815 32.7788768,54.8961214 C33.730473,53.8908046 34.3446238,53.1100431 34.3446238,53.1100431 L34.2315795,52.8423041 L34.3446238,52.7006615 C34.3446238,52.7006615 33.8519534,51.5502475 33.173688,49.8349905 L35.4092642,47.7915374 C35.4092642,47.7915374 35.3232156,47.7759912 35.1831758,47.7414443 L35.2759733,47.6550769 C35.2759733,47.6550769 35.184863,47.6378034 35.0346997,47.6015291 C36.5970723,46.2058315 40.1284391,42.7908637 38.3382909,41.9289169 C36.6122573,41.096335 33.3356618,43.7547242 31.8778974,45.0623269 C31.7581043,45.1089653 31.6130027,45.1642405 31.44428,45.2246977 C31.221566,44.5907608 31.0039137,43.9481872 30.7946975,43.3090683 L33.6764817,38.6555917 C33.6849179,38.5674969 33.6899796,38.4828568 33.6899796,38.4016715 C34.5791484,37.1234336 37.1724168,33.0468914 35.274286,31.5648265 C33.1871858,29.9307549 31.1000856,35.1335283 30.7862613,35.9557461 C30.5972919,35.9315632 30.479186,35.9281085 30.479186,35.9281085 C30.2699698,36.3564909 29.7334315,36.6725957 29.2677567,36.8764228 C29.2677567,36.8349664 29.2677567,36.7917827 29.2677567,36.7520537 C29.2677567,36.7123247 29.2677567,36.6449581 29.2761929,36.5931377 C29.3204417,36.0727746 29.3384627,35.5504225 29.3301841,35.02816 C29.3301841,34.7189647 29.3301841,34.4097693 29.306563,34.1005739 C29.2491972,33.2662646 29.1901443,32.2004907 29.1817081,31.2711772 C29.1817081,30.4334133 29.2525717,29.7822029 29.41792,29.6561065 L29.2913779,29.5110092 C29.3063504,29.4117978 29.3504905,29.3196106 29.41792,29.2467249 C29.41792,29.2467249 29.2829418,29.0895362 29.0636022,28.8425254 C29.4499773,27.7059301 30.048943,26.0424936 30.6985255,24.6070671 L30.8368781,24.5777022 C30.8858077,24.4740613 30.9347373,24.3704204 30.9836669,24.2702342 C33.2454305,23.6715126 34.9933258,21.8331794 35.516998,19.5023439 C36.0406703,17.1715084 35.2529667,14.7360833 33.4740145,13.1858394 C33.546058,13.1482952 33.612991,13.1012571 33.6731073,13.0459242 C34.0105528,12.7229101 34.0358612,12.18225 34.0324867,11.7124113 C34.0324867,10.5320565 34.0268626,9.35112598 34.0156144,8.16961967 C34.0156144,7.71187234 34.0156144,7.23685153 33.8182088,6.82228792 C33.7416998,6.65571793 33.6319163,6.50742842 33.4959484,6.38699612 C33.2903728,6.11434917 32.9616833,5.96994586 32.6270263,6.00525212 C32.2220918,6.07261871 31.9436993,6.44054392 31.6686812,6.75319398 C30.1928822,8.38151721 27.9258666,8.98063936 25.8646192,8.28707936 C25.358451,8.11434452 24.8742168,7.85178757 24.3461146,7.79133037 C23.8180124,7.73087318 23.2055489,7.93470029 22.9963327,8.43563133 C22.7567465,8.99356486 23.0941919,9.66550339 22.9052225,10.2441651 C22.5407814,11.3669416 20.6932674,11.1631145 20.148293,12.2064329 C19.6910544,13.0821985 20.4688662,14.056423 20.9919067,14.8907323 C21.9721857,16.4453459 22.1476574,18.3661573 22.6572,20.1384168 C22.8664162,20.8690851 23.4282629,22.4634277 24.2195725,23.2096422 C24.2916176,23.2891785 24.3688446,23.3636251 24.4507227,23.4324702 C24.3047056,24.0131156 24.1261259,24.5846638 23.9158716,25.1442724 C23.4836777,25.0374698 23.0286745,25.087532 22.6285172,25.285915 C21.4305858,25.9682176 15.4358671,29.2398155 15.0359942,37.8299191 C15.0089985,38.4189449 14.997188,39.0476998 15.0005624,39.7075468 C14.960069,48.6154826 17.7001261,63.7384179 17.7001261,63.7384179 C17.7001261,63.7384179 18.1354308,63.292762 18.842379,62.683008 C19.9272662,64.2877146 23.3978928,66.6092709 34.3479982,66.8752826 L45.3993372,67.2898462 C45.3993372,67.2898462 46.5972687,68.1086093 44.9994644,70.0173293 C43.9516962,71.2696569 43.8184052,74.1629655 43.853837,76.0077736 C43.8767177,77.2585852 43.7497921,78.507554 43.4758981,79.7267547 C43.1890694,81.0032652 42.82969,82.5699702 42.5816676,83.5269212 C42.4503928,83.4430506 42.3236641,83.3519427 42.2020415,83.2540001 L40.6042372,94.0257448 L40.6227967,94.0257448 L40.6042372,94.1570233 C40.6042372,94.1570233 52.3254054,97.5650817 55.7892832,95.1122469 C56.7189454,94.4541272 57.0327697,93.892739 56.9973379,93.4263549 C57.0918227,92.0531129 54.1897916,91.4260854 54.1897916,91.4260854 Z"/>
    <path fill="#FDB797" d="M26.1595889 22C26.1595889 22 25.4893942 28.1113125 23.3440712 29.362219 21.1987483 30.6131255 29.7870396 32 29.7870396 32 29.7870396 32 32.2000904 24.0830312 33.8117075 23.3886875 35.4233245 22.6943437 26.1595889 22 26.1595889 22zM32 36.8298162C32 36.8298162 34.1693985 31.8410832 36.3471409 33.2510656 38.5248833 34.661048 34.5565528 39 34.5565528 39L32 36.8298162z"/>
    <path fill="#4D8AF0" d="M19.0089147,60.4735462 C19.0089147,60.4735462 18.1037591,65.5226081 34.5350343,65.9112574 L45.2736241,66.2999068 C45.2736241,66.2999068 46.438843,67.0772055 44.8852178,68.8886493 C43.871984,70.0714952 43.7385749,72.8258361 43.7723493,74.576448 C43.7946456,75.7630957 43.671578,76.9480078 43.4058964,78.1047081 C43.0056691,79.846871 42.4568341,82.1601795 42.2980941,82.4829274 C42.0397195,83 48.3774971,83 48.3774971,83 L51.7414334,69.6642582 C51.7414334,69.6642582 55.3637443,62.1548771 50.3178399,59.9547838 C45.2719354,57.7546906 31.0393776,54 31.0393776,54 L19.0089147,60.4735462 Z"/>
    <path fill="#000" d="M46.4840454,83.1002782 C46.4840454,83.1002782 48.1842903,81.5413823 48.7346034,82.1347055 C48.7346034,82.1347055 46.9707385,86.3399859 51.2364606,88.7051513 L53.4297606,89.9503175 C53.4297606,89.9503175 58.0597073,90.9467755 54.8914305,93.1883996 C51.7231537,95.4300237 41,92.3171084 41,92.3171084 L42.4616699,82.4776952 C42.4616699,82.4776952 44.5340919,84.2219031 46.4840454,83.1002782 Z" opacity=".1"/>
    <path fill="#333" d="M46.4840454,83.1002782 C46.4840454,83.1002782 48.1842903,81.5413823 48.7346034,82.1347055 C48.7346034,82.1347055 46.9707385,86.3399859 51.2364606,88.7051513 L53.4297606,89.9503175 C53.4297606,89.9503175 58.0597073,90.9467755 54.8914305,93.1883996 C51.7231537,95.4300237 41,92.3171084 41,92.3171084 L42.4616699,82.4776952 C42.4616699,82.4776952 44.5340919,84.2202775 46.4840454,83.1002782 Z"/>
    <path fill="#3AD29F" d="M29,38.0335973 C29,38.0335973 30.5335156,37.6890648 30.9173116,37 C30.9173116,37 34.2413192,37.1153435 33.9860114,39.2948855 L30.6620038,44 L29,38.0335973 Z"/>
    <path fill="#000" d="M29,38.0335973 C29,38.0335973 30.5335156,37.6890648 30.9173116,37 C30.9173116,37 34.2413192,37.1153435 33.9860114,39.2948855 L30.6620038,44 L29,38.0335973 Z" opacity=".05"/>
    <path fill="#000" d="M25.6327436,27.8444449 C25.6327436,27.8444449 23.6707074,26.5249997 22.4924611,27.1847223 C21.3142147,27.8444449 15.428106,31.012147 15.0353572,39.3198288 C14.6426085,47.6275107 17.6514056,64 17.6514056,64 C17.6514056,64 22.0997123,59.5128527 25.6327436,59.6454863 C29.1657749,59.7781198 34,53.7062603 34,53.7062603 C34,53.7062603 28.7064296,41.5263684 29.018921,37.7213364 C29.0797821,37.050737 29.0900572,36.3764429 29.0496579,35.7042733 C28.9318333,33.9972626 28.8020554,31.277414 29.1589445,31.0069794 C29.1657749,31.012147 26.2884633,27.7135339 25.6327436,27.8444449 Z" opacity=".1"/>
    <path fill="#3AD29F" d="M25.63178,27.8443663 C25.63178,27.8443663 23.6699181,26.5250439 22.4917766,27.1847051 C21.313635,27.8443663 15.4280495,31.0117734 15.0353357,39.3255713 C14.6426218,47.6393691 17.6528589,64 17.6528589,64 C17.6528589,64 22.1007702,59.5132705 25.6334874,59.6458917 C29.1662047,59.7785129 34,53.7072186 34,53.7072186 C34,53.7072186 28.7069002,41.5284607 29.0193638,37.723783 C29.0802195,37.053246 29.0904937,36.3790146 29.050098,35.7069077 C28.9322838,34.0000559 28.8025175,31.2804605 29.1593749,31.0100511 C29.1644972,31.0117734 26.2874414,27.7134675 25.63178,27.8443663 Z"/>
    <path fill="#FDB797" d="M32,45.7098723 C32,45.7098723 36.4891185,41.129617 38.5507877,42.147636 C40.6124569,43.1656551 34.9088221,48 34.9088221,48 L32,45.7098723 Z"/>
    <path fill="#000" d="M20,37.8215245 C20,37.8215245 21.4998368,51.0242336 22.3762376,51.8168786 C23.2526385,52.6095236 26.0026113,56.3056618 31.5041889,51.8168786 L35,48.5153398 C35,48.5153398 31.6233272,47.8553766 32.1243608,45.8754872 C32.1243608,45.8754872 27.6232184,47.8553766 26.872484,46.2718097 C26.1217495,44.6882428 27.9985856,37.4269251 27.9985856,37.4269251 C27.9985856,37.4269251 26.9981504,30.9582525 24.1225112,32.1454969 C21.2468719,33.3327413 20,37.8215245 20,37.8215245 Z" opacity=".1"/>
    <path fill="#3AD29F" d="M20,37.823009 C20,37.823009 21.4993474,51.0245066 22.3754623,51.8170789 C23.2515771,52.6096512 26.0006526,56.3054503 31.5004351,51.8170789 L35,48.517566 C35,48.517566 31.624429,47.8576634 32.1252991,45.8779556 C32.1252991,45.8779556 27.6256254,47.8576634 26.875136,46.2742418 C26.1246465,44.6908202 28.0008701,37.4301688 28.0008701,37.4301688 C28.0008701,37.4301688 27.0007614,30.9569207 24.1260605,32.1457792 C21.2513596,33.3346376 20,37.823009 20,37.823009 Z"/>
    <path fill="#000" d="M26.0589397,22 C26.0589397,22 26.1969827,22.1500652 26,22.9499783 C27.0236897,23.9312745 28.306404,25 29.9815326,25 C30.4081094,24.9998681 30.8332702,24.9587137 31.2487364,24.877338 C31.785398,23.937799 32.3499784,23.1705089 32.8339044,23.0008699 C34.2577637,22.4958678 26.0589397,22 26.0589397,22 Z" opacity=".1"/>
    <circle cx="29" cy="19" r="6" fill="#FDB797"/>
    <path fill="#000" d="M27.5530584,21.3587296 C27.6563893,20.8848893 27.7422065,20.3372261 27.4339652,19.9578104 C27.2588282,19.7346248 26.9663493,19.6144479 26.761439,19.4152976 C26.0468798,18.7079708 26.6756218,17.5096355 27.4094461,16.8211936 C29.0874817,15.2571826 31.2390103,14.2707382 33.539243,14.0107711 C33.9280472,13.9678508 34.3501275,13.9335145 34.6373523,13.6674086 C34.9876264,13.3549487 35.0016374,12.8399048 34.999886,12.3815158 L34.9823723,8.96505848 C34.9823723,8.52383761 34.9823723,8.06544861 34.7844674,7.66543124 C34.5865625,7.26541387 34.1644822,6.93921945 33.7196341,7.00960877 C33.3115648,7.07484766 33.0313455,7.4302279 32.754629,7.73238694 C31.2678183,9.30345018 28.9836113,9.88150789 26.9068027,9.21227952 C26.3989053,9.04059824 25.9085215,8.7916604 25.3743535,8.73500558 C24.8401855,8.67835076 24.2254544,8.87406741 24.0082845,9.35649179 C23.7665953,9.89557099 24.1063612,10.5428094 23.9172132,11.1007735 C23.5494254,12.1840824 21.6877185,11.9866489 21.1395395,12.9892675 C20.6789291,13.8339394 21.4617917,14.7747528 21.992457,15.579938 C22.98023,17.0769987 23.1571184,18.9328732 23.67027,20.6428187 C23.9417324,21.5510127 24.8016553,23.8412409 25.9890845,23.9871699 C27.3989378,24.1691521 27.3341371,22.3716492 27.5530584,21.3587296 Z" opacity=".1"/>
    <path fill="#333" d="M27.5478043,21.3602484 C27.6511352,20.8864147 27.7369524,20.338759 27.4287111,19.9593486 C27.2535741,19.736166 26.9610952,19.6159908 26.7561848,19.4168432 C26.0416257,18.7095261 26.6703677,17.5077738 27.4094461,16.8210582 C29.0874817,15.2570688 31.2390103,14.2706379 33.539243,14.0106745 C33.9280472,13.9677547 34.3501275,13.9334189 34.6373523,13.6673166 C34.9876264,13.354861 35.0016374,12.8398243 34.999886,12.3814416 L34.9823723,8.96503139 C34.9823723,8.5238166 34.9823723,8.06543392 34.7844674,7.66542207 C34.5865625,7.26541021 34.1644822,6.93922029 33.7196341,7.00960864 C33.3115648,7.07484663 33.0313455,7.43022196 32.754629,7.73237684 C31.2678183,9.30341842 28.9836113,9.88146816 26.9068027,9.21224901 C26.3989053,9.04057011 25.9085215,8.79163569 25.3743535,8.73498165 C24.8401855,8.67832761 24.2254544,8.87404157 24.0082845,9.3564593 C23.7665953,9.89553106 24.1063612,10.5427605 23.9172132,11.100717 C23.5494254,12.1840109 21.6877185,11.9865801 21.1395395,12.989185 C20.6789291,13.8338452 21.4617917,14.7746456 21.992457,15.5798197 C22.98023,17.0768597 23.1571184,18.9327087 23.67027,20.6426306 C23.9417324,21.550812 24.8016553,23.8410086 25.9890845,23.9869357 C27.3919324,24.1706321 27.3271316,22.373154 27.5478043,21.3602484 Z"/>
    <rect width="9" height="7" x="33" y="27" fill="#7CFCFF" transform="rotate(-12.15 37.5 30.5)"/>
    <path fill="url(#catalog-image-h)" d="M144.815406,31.2549959 C144.644329,30.5282332 144.302174,29.8509449 144.055822,29.1446544 C143.718588,28.1209799 143.545383,27.0506668 143.54259,25.9731711 C143.54259,24.222799 143.85053,22.4366005 144.132807,20.6998764 C144.367183,19.2548811 144.567344,17.7535872 144.545104,16.2881197 C144.545104,14.7612356 144.307306,13.2684718 143.621286,11.9087772 C142.863413,10.4074833 141.445182,9.12285347 139.765202,9.00855041 C138.167339,8.90107142 136.685809,9.83767407 135.111897,10.0884584 C133.537985,10.3392427 131.960652,9.90762072 130.385029,10.0219238 C128.884148,10.1344983 127.461411,10.7336454 126.333917,11.7279395 C125.469976,12.4973526 124.783956,13.5567884 124.77027,14.7134671 C124.77027,14.7561175 124.77027,14.7970619 124.77027,14.8380063 C124.77027,14.8789506 124.77027,14.8925988 124.77027,14.921601 C124.74974,16.7009755 126.102962,17.3356133 127.642659,17.6068698 C127.392089,19.2651476 127.819835,20.9543048 128.829869,22.2951328 C129.839903,23.6359607 131.3476,24.516119 133.014488,24.7380157 C133.089763,24.8733596 133.162756,25.0115469 133.233468,25.1525775 C133.250575,25.3709476 133.262551,25.5893176 133.264261,25.8093936 C133.241808,27.0001655 132.983671,28.1747826 132.504678,29.2657815 C132.18785,29.4666405 131.847032,29.6271187 131.490189,29.743466 L127.528037,34.3258243 C127.126201,34.7018625 126.773821,35.1272118 126.479333,35.591688 C126.347033,35.6656153 126.214163,35.7378367 126.080722,35.808352 L126.311677,35.8680625 L126.292858,35.9021828 L126.082433,36.0164859 L126.210741,36.0506062 C125.759789,36.8639926 125.530345,37.7809813 125.54525,38.7102848 C125.537496,39.5807564 125.753035,40.4387523 126.171393,41.2027738 C126.442807,41.729791 126.677732,42.2747146 126.874521,42.8337249 L125.54525,44.9543025 L121.052758,51.5907038 L117.602127,52.2389898 C116.829404,52.1456025 116.048199,52.1456025 115.275475,52.2389898 L115.987157,50.8997674 C116.045363,50.7898145 116.038985,50.6569921 115.97051,50.5530884 C115.902035,50.4491846 115.782304,50.3906496 115.658001,50.4003065 C115.533698,50.4099634 115.424502,50.4862833 115.372989,50.5995086 L114.42351,52.3857071 C113.347433,52.6296674 112.221744,53.127824 111.43821,54.1156071 C110.582823,55.188691 111.43821,55.5520724 112.705893,55.616901 L112.574163,55.8625672 C112.515851,55.9821751 112.532544,56.1246711 112.616933,56.2276546 C112.45612,56.272011 112.274778,56.3214855 112.103701,56.377784 L109.231311,56.377784 L109.231311,57.7340665 C108.408429,58.3124059 107.70188,59.0630528 107.34946,60.0286577 C105.057023,61.9666916 104.861995,65.6823939 104.861995,65.6823939 L97.5330403,87.0417112 C97.5330403,87.0417112 97.3739383,87.2788474 97.13443,87.664407 C95.1242708,88.9353887 91.1210601,93.9340149 92.173186,96 L96.5835608,93.7685314 L96.6981827,93.8162998 L97.0198081,93.5484554 L105.915832,89.0531038 L103.94331,85.0814991 L103.669586,85.1838601 C103.589179,84.7846524 103.621684,84.416153 103.919359,84.2301973 C104.403508,83.9282325 107.489744,78.0544202 109.996027,73.1735091 C110.871943,75.7837133 112.69905,81.8520113 111.841952,84.8017126 L111.515194,85.0456728 C109.963523,86.4957862 107.219441,92.8933453 108.878892,94.6522476 L113.337168,90.484451 L116.772402,87.3573242 L116.839122,87.2123128 L120.1067,84.1414845 L117.09916,80.8795823 L116.630408,81.2207855 C116.358395,80.4189581 115.79384,78.6054633 116.036769,77.9640014 C116.279699,77.3225395 116.916107,70.8584458 115.928991,66.4330409 L116.637251,66.3852724 C119.095633,69.585758 122.067247,72.4330983 122.932899,72.6497623 C123.018141,72.6698652 123.106554,72.6727654 123.192936,72.6582924 C124.876338,72.9278429 127.948887,66.1890806 127.948887,66.1890806 L136.516442,66.1890806 C144.059244,65.1142907 142.810379,59.0664648 141.294634,55.3900009 C141.340824,55.4121791 141.385305,55.4343573 141.428074,55.4565355 C141.428074,55.4565355 141.410966,55.3763527 141.380172,55.2245173 L141.428074,55.2484016 C140.972665,52.9368092 140.738378,50.5873186 140.728367,48.2315587 C140.722856,46.5915327 140.871199,44.9545881 141.171458,43.3421176 C141.766807,44.3827872 142.687203,45.2630913 143.857373,45.4081027 C144.489895,41.6275746 144.865978,37.808805 144.983062,33.9777971 C144.983062,33.7065406 144.996748,33.4352841 144.996748,33.1640275 C145.015304,32.5226668 144.954396,31.8814743 144.815406,31.2549959 Z M122.720763,54.9924992 L123.167275,54.4806945 C125.220203,54.1992019 127.338141,53.8699408 128.746108,53.5457978 C128.260468,54.2005126 127.63978,54.7438499 126.925845,55.1392165 C125.8549,55.0778 124.357973,55.0061473 122.720763,54.9924992 Z M128.008764,49.0112079 L127.528037,50.3623724 L126.67265,50.532974 L128.008764,49.0112079 Z M113.467187,55.625431 C114.26897,55.5966495 115.068548,55.5237486 115.862271,55.407061 L115.81608,55.4462994 C115.172582,55.5580294 114.539646,55.7235274 113.923964,55.941044 C113.923964,55.941044 113.658794,55.9785763 113.239654,56.0758192 L113.467187,55.625431 Z"/>
    <path fill="#4D8AF0" d="M113.164779,54.970737 C113.094702,54.9373259 113.041127,54.8781442 113.015854,54.8062253 C112.99058,54.7343063 112.995681,54.6555482 113.030032,54.5872953 L115.441698,50.1605582 C115.475988,50.0922759 115.536725,50.0400737 115.610535,50.0154477 C115.684345,49.9908217 115.765173,49.9957917 115.835221,50.029263 C115.905298,50.0626741 115.958873,50.1218558 115.984146,50.1937747 C116.00942,50.2656937 116.004319,50.3444518 115.969968,50.4127047 L113.558302,54.8394418 C113.524012,54.9077241 113.463275,54.9599263 113.389465,54.9845523 C113.315655,55.0091783 113.234827,55.0042083 113.164779,54.970737 Z"/>
    <path fill="#BE7C5E" d="M113.731143,55 C113.731143,55 106.239993,56.0399048 107.063196,60.9883012 L109.429468,70.1940713 C109.429468,70.1940713 112.93246,79.2009617 111.589063,82.6661875 C111.589063,82.6661875 110.252671,88.2095375 108.914528,88.0106578 C107.576385,87.8117781 111.793988,89 111.793988,89 L116.523028,84.8420661 L117.961006,81.7729143 C117.961006,81.7729143 118.372608,80.8813265 116.521276,79.398156 C116.521276,79.398156 115.493148,76.7250781 115.801411,75.9346156 C116.109675,75.1441531 117.027459,65.4614088 114.514062,62.136073 L113.731143,55 Z"/>
    <path fill="#000" d="M113.731143,55 C113.731143,55 106.239993,56.0399048 107.063196,60.9883012 L109.429468,70.1940713 C109.429468,70.1940713 112.93246,79.2009617 111.589063,82.6661875 C111.589063,82.6661875 110.252671,88.2095375 108.914528,88.0106578 C107.576385,87.8117781 111.793988,89 111.793988,89 L116.523028,84.8420661 L117.961006,81.7729143 C117.961006,81.7729143 118.372608,80.8813265 116.521276,79.398156 C116.521276,79.398156 115.493148,76.7250781 115.801411,75.9346156 C116.109675,75.1441531 117.027459,65.4614088 114.514062,62.136073 L113.731143,55 Z" opacity=".1"/>
    <path fill="#F5F5F5" d="M108.483526,91.9933007 L119,82.0800052 L116.183504,79 L110.95025,82.9308168 C109.497864,84.2991497 106.927874,90.3318732 108.483526,92 L108.483526,91.9933007 Z"/>
    <path fill="#333" d="M128,54.2616854 C128,54.2616854 116.921734,53.266018 113.022856,55.1589734 C113.022856,55.1589734 112.715417,56.7533981 114.355671,58.6446573 C115.995925,60.5359164 128,54.2616854 128,54.2616854 Z"/>
    <path fill="#000" d="M128,54.2616854 C128,54.2616854 116.921734,53.266018 113.022856,55.1589734 C113.022856,55.1589734 112.715417,56.7533981 114.355671,58.6446573 C115.995925,60.5359164 128,54.2616854 128,54.2616854 Z" opacity=".3"/>
    <rect width="11" height="2" x="109" y="57" fill="#E0E0E0"/>
    <path fill="#BE7C5E" d="M115.22994,59.0378676 C115.22994,59.0378676 109.451594,58.638153 107.059501,60.4360182 C104.667408,62.2338834 104.468916,66.0303215 104.468916,66.0303215 L97.4945232,86.5076146 C97.4945232,86.5076146 95.3314606,89.7597605 95.0040323,91.7022033 C94.9039377,92.3009247 96.700552,93 96.700552,93 L102.777485,87.8972606 L103.965049,86.1963475 C103.965049,86.1963475 102.777485,84.2981284 103.566367,83.7997609 C104.355249,83.3013933 112.532474,66.9181981 112.532474,66.9181981 L123,66.2276274 L115.22994,59.0378676 Z"/>
    <path fill="#000" d="M138.522453,52.7009026 C138.522453,52.7009026 145.844794,64.2896125 135.313057,65.7883872 L127.087167,65.7883872 C127.087167,65.7883872 124.077611,72.3823154 122.475476,71.9825288 C120.87334,71.5827421 111.742191,61.7922217 113.146195,58.2945136 L126.086259,55.2969641 C126.086259,55.2969641 128.492879,54.1979761 128.694427,52 L138.522453,52.7009026 Z" opacity=".1"/>
    <path fill="#333" d="M138.523151,52.6992609 C138.523151,52.6992609 145.844423,64.295762 135.312516,65.7878588 L127.089534,65.7878588 C127.089534,65.7878588 124.080417,72.382348 122.478515,71.9825273 C120.876614,71.5827066 111.74509,61.7913533 113.145473,58.295049 L126.083649,55.2972446 C126.083649,55.2972446 128.489917,54.1981631 128.691435,52 L138.523151,52.6992609 Z"/>
    <path fill="#F5F5F5" d="M92.1600722,95 L105,88.000325 L103.15503,84 L97.0478291,86.4488138 C95.2743952,87.4158271 91.1336099,92.8246669 92.1617358,95 L92.1600722,95 Z"/>
    <path fill="#BE7C5E" d="M125.931389,42 L123.610565,46.1493235 L118.039321,55.3706304 C118.039321,55.3706304 113.489367,55.5770381 114.04744,59.6187473 C114.605512,63.6604565 119.988624,57.5458497 119.988624,57.5458497 L129,46.1493235 L125.931389,42 Z"/>
    <path fill="#000" d="M125.931389,42 L123.610565,46.1493235 L118.039321,55.3706304 C118.039321,55.3706304 113.489367,55.5770381 114.04744,59.6187473 C114.605512,63.6604565 119.988624,57.5458497 119.988624,57.5458497 L129,46.1493235 L125.931389,42 Z" opacity=".1"/>
    <circle cx="132" cy="19" r="6" fill="#BE7C5E"/>
    <path fill="#BE7C5E" d="M130,23.0958364 C130,23.0958364 135.464279,27.7404149 132.371424,32.4871444 C129.278568,37.233874 140,29.2940997 140,29.2940997 C140,29.2940997 136.289275,23.4830219 137.109005,20 L130,23.0958364 Z"/>
    <path fill="#000" d="M134.165214,27.9937816 C134.165214,27.9937816 132.740257,30.1712675 130.805644,30.7645144 L126.936418,35.1144302 C126.936418,35.1144302 123.679126,37.885163 125.613739,41.4480153 C127.548352,45.0108677 128.668209,53.8202476 128.668209,53.8202476 C128.668209,53.8202476 138.237262,53.8202476 140.476975,55 C140.476975,55 138.542362,46.3894926 141.189454,40.3508456 C143.836545,34.3121985 139.152563,26 139.152563,26 L134.165214,27.9937816 Z" opacity=".1"/>
    <path fill="#F55F44" d="M134.165214,27.9871556 C134.165214,27.9871556 132.740257,30.1647681 130.805644,30.7580495 L126.936418,35.1132744 C126.936418,35.1132744 123.679126,37.8841683 125.613739,41.4472277 C127.548352,45.0102871 128.668209,53.820179 128.668209,53.820179 C128.668209,53.820179 138.237262,53.820179 140.476975,55 C140.476975,55 138.542362,46.3889922 141.189454,40.3499942 C143.836545,34.3109962 139.152563,26 139.152563,26 L134.165214,27.9871556 Z"/>
    <path fill="#BE7C5E" d="M138,36.8194318 C138,36.8194318 130.773277,50.7425516 129.202018,51.6144041 C127.630758,52.4862566 115.690257,53.6581192 115.690257,53.6581192 C115.690257,53.6581192 108.358307,54.9228026 110.339771,52.587365 C112.321234,50.2519274 116.519582,50.8353724 116.519582,50.8353724 L126.469703,49.0833798 L132.230393,34 L138,36.8194318 Z"/>
    <path fill="#000" d="M134.77634,31.3104533 C134.77634,31.3104533 128.996969,34.6411275 130.152843,37.6693257 C130.152843,37.6693257 136.773175,36.7601788 139.084924,41 C139.084924,41 142.761892,37.0643735 139.925885,32.8245524 C139.925885,32.8245524 138.34953,30.0988303 134.77634,31.3104533 Z" opacity=".1"/>
    <path fill="#F55F44" d="M134.77634,30.3104533 C134.77634,30.3104533 128.996969,33.6411275 130.152843,36.6693257 C130.152843,36.6693257 136.773175,35.7601788 139.084924,40 C139.084924,40 142.761892,36.0643735 139.925885,31.8245524 C139.925885,31.8245524 138.34953,29.0988303 134.77634,30.3104533 Z"/>
    <path fill="#333" d="M129.868233,19.3917027 C130.045258,19.3833199 130.218011,19.4490612 130.346891,19.5738568 C130.475771,19.6986523 130.549727,19.8718 130.551805,20.0536092 L131.287187,22.9447343 C131.636494,24.3165612 131.989144,25.7123951 131.989144,27.1322359 C131.989144,31.3334558 128.857081,34.9567935 125.230307,36.9065025 L128.940648,37.9062214 C129.303024,38.0308068 129.686025,38.0797811 130.06712,38.0502632 C130.381641,37.9883981 130.680691,37.8618177 130.946237,37.6781551 C132.523968,36.6870102 133.655454,35.071684 134.402536,33.3346082 C135.149619,31.5975324 135.547394,29.7335627 135.941826,27.8747372 C137.165748,30.1031169 137.918046,32.5711984 138.149646,35.1179832 C138.398674,37.8839292 138.046024,40.7870578 139.087259,43.3489445 C139.603699,44.6195992 140.591451,45.8302364 141.928511,46 C142.522683,42.3475129 142.876134,38.6580755 142.98646,34.9567935 C143.011529,34.137127 143.021557,33.3071717 142.832698,32.5097973 C142.665565,31.8067361 142.348014,31.1534035 142.119042,30.4692048 C141.229897,27.8027163 141.751351,24.8875842 142.190909,22.1062052 C142.630467,19.3248261 142.944676,16.3273844 141.709568,13.8100821 C140.997583,12.3593751 139.665538,11.1178718 138.086136,11.0081256 C136.581944,10.9052386 135.199758,11.8089296 133.715622,12.0507141 C132.231486,12.2924986 130.755706,11.8792357 129.276584,11.9872671 C127.863194,12.1008148 126.525133,12.6869433 125.467635,13.6557515 C124.655371,14.3999676 124.011911,15.4236934 124.000212,16.5400176 C123.966786,19.5374593 127.891056,19.1602069 129.868233,19.3917027 Z" opacity=".1"/>
    <path fill="#333" d="M129.864298,19.3899879 C130.041353,19.3816051 130.214136,19.4473464 130.343039,19.572142 C130.471941,19.6969375 130.545909,19.8700852 130.547987,20.0518944 L131.283497,22.9430196 C131.632864,24.3148465 131.985574,25.7106803 131.985574,27.1305211 C131.985574,31.331741 128.852972,34.9550788 125.225572,36.9047877 L128.936553,37.9045066 C129.298992,38.029092 129.682058,38.0780663 130.06322,38.0485484 C130.377794,37.9866833 130.676896,37.8601029 130.942488,37.6764404 C132.52049,36.6852954 133.652172,35.0699693 134.399383,33.3328935 C135.146594,31.5958177 135.544438,29.7318479 135.938938,27.8730224 C137.163878,30.1017852 137.916885,32.5704821 138.14881,35.1179832 C138.39788,37.8839292 138.04517,40.7870578 139.086585,43.3489445 C139.603113,44.6195992 140.591036,45.8302364 141.928326,46 C142.522601,42.3475129 142.876113,38.6580755 142.986457,34.9567935 C143.011531,34.137127 143.021561,33.3071717 142.832669,32.5097973 C142.665508,31.8067361 142.347901,31.1534035 142.11889,30.4692048 C141.229592,27.8027163 141.751135,24.8875842 142.19077,22.1062052 C142.630404,19.3248261 142.944667,16.3273844 141.709345,13.8100821 C140.997238,12.3593751 139.664963,11.1178718 138.085289,11.0081256 C136.580837,10.9052386 135.198414,11.8089296 133.714022,12.0507141 C132.22963,12.2924986 130.753596,11.8792357 129.274218,11.9872671 C127.863361,12.0977079 126.526534,12.6788915 125.467956,13.6420333 C124.655553,14.3862493 124.011982,15.4099752 124.00028,16.5262993 C123.961833,19.5357445 127.88678,19.1584921 129.864298,19.3899879 Z"/>
  </g>
</svg>
