<?xml version="1.0" encoding="UTF-8"?>
<svg width="447px" height="281px" viewBox="0 0 447 281" version="1.1" xmlns="http://www.w3.org/2000/svg" xmlns:xlink="http://www.w3.org/1999/xlink">
    <!-- Generator: Sketch 52.5 (67469) - http://www.bohemiancoding.com/sketch -->
    <title>logo</title>
    <desc>Created with Sketch.</desc>
    <defs>
        <linearGradient x1="22.3712241%" y1="22.4717598%" x2="73.1214253%" y2="78.5881116%" id="linearGradient-1">
            <stop stop-color="#00BC87" offset="0%"></stop>
            <stop stop-color="#449D69" offset="100%"></stop>
        </linearGradient>
    </defs>
    <g id="Page-1" stroke="none" stroke-width="1" fill="none" fill-rule="evenodd">
        <g id="logo">
            <rect id="Rectangle" fill-opacity="0.01" fill="#FFFFFF" x="0" y="0" width="447" height="281" rx="6"></rect>
            <g id="Group-23-Copy-2" transform="translate(144.000000, 43.800000)">
                <path d="M157.077802,64.2937909 L142.362534,55.5200317 C139.914701,49.4334247 136.277812,45.3235516 133.02534,41.6960846 L132.657882,41.2834013 C124.913005,32.6268517 116.318263,28.5686112 107.080942,29.211568 C95.4315909,30.0256281 83.7539737,38.4245804 73.2032268,53.4924189 C70.981521,52.5860233 68.7485088,51.7154312 66.526803,50.8561455 C48.7173532,43.9385188 31.8934438,37.404744 22.194445,10.9508047 L18.2240175,0.120978381 L16.8389846,11.5735984 C15.4426453,23.1008407 15.2033267,33.0523489 15.8515598,41.7413102 C12.1788672,37.4731477 9.08468495,32.4252211 6.52001865,26.4318918 L2.45725558,16.9499757 L1.2210902,27.1903622 C-5.98296509,86.7708956 22.3376593,99.6206087 47.3247828,110.959034 C47.339858,110.966572 47.3549332,110.970341 47.3700083,110.977878 C44.880718,120.411177 43.5145291,133.383376 42.1916814,145.974926 C41.5585235,151.988042 40.8443365,158.805795 39.943594,165.122299 C38.7413478,165.316392 37.5635988,165.493525 36.4103469,165.672543 C26.5681338,167.181946 19.4582984,168.269244 17.4495297,173.06127 C15.7931434,177.012853 18.836447,181.230137 19.8370625,182.61517 C22.9350136,186.909714 27.4801827,192.325475 32.5228329,192.325475 C33.1164184,192.325475 33.7194259,192.250099 34.3280866,192.088041 C39.9134437,190.599366 42.7400413,182.820569 44.8298392,169.927515 C49.2204876,169.151143 53.8278419,168.159949 58.4408493,166.697656 C98.1206275,154.109874 105.695909,126.311228 112.381755,101.787667 C117.06637,84.5981842 121.181896,69.5211122 135.774677,62.4527336 C139.971233,60.8509949 157.077802,64.2937909 157.077802,64.2937909 Z" id="Path" fill="url(#linearGradient-1)"></path>
                <path d="M5.8567104,37.3446317 C8.97538984,42.5402951 12.636776,46.9460187 16.9011697,50.679012 C21.7176922,80.3375593 38.2532886,93.1232028 53.3209387,104.749941 C56.5922544,107.271266 59.763697,109.720984 62.7108962,112.263038 C58.50115,109.945228 54.0407789,107.919499 49.6143269,105.906962 C26.6830821,95.5031981 3.01503753,84.7677801 5.8567104,37.3446317 Z" id="Path" fill="#FFFFFF"></path>
            </g>
        </g>
    </g>
</svg>