<svg aria-hidden="true" style="position: absolute; width: 0; height: 0; overflow: hidden;" version="1.1" xmlns="http://www.w3.org/2000/svg" xmlns:xlink="http://www.w3.org/1999/xlink">
<defs>
<symbol id="icon-left" viewBox="0 0 32 32">
<title>left</title>
<path d="M16 0c-8.837 0-16 7.163-16 16s7.163 16 16 16c8.836 0 16-7.163 16-16s-7.164-16-16-16zM16 31c-8.284 0-15-6.716-15-15s6.715-15 15-15c8.283 0 15 6.715 15 15s-6.717 15-15 15z"></path>
<path d="M20.057 8.496c0.186-0.197 0.486-0.197 0.672 0s0.186 0.516 0 0.713l-7.066 7.487 7.066 7.488c0.186 0.197 0.186 0.515 0 0.712s-0.486 0.197-0.672 0l-7.398-7.839c-0.094-0.099-0.14-0.231-0.138-0.361-0.001-0.131 0.044-0.262 0.138-0.361l7.398-7.839z"></path>
</symbol>
<symbol id="icon-right" viewBox="0 0 16 32">
<title>right</title>
<path fill="#fff" style="fill: var(--color1, #fff)" d="M1.6 1.038c-0.335-0.355-0.876-0.355-1.21 0s-0.335 0.929 0 1.282l12.718 13.477-12.718 13.478c-0.335 0.355-0.335 0.928 0 1.282s0.876 0.355 1.21 0l13.316-14.11c0.169-0.179 0.252-0.415 0.249-0.649 0.003-0.235-0.080-0.471-0.249-0.65l-13.316-14.11z"></path>
</symbol>
<symbol id="icon-drag" viewBox="0 0 46 32">
<title>drag</title>
<path d="M0 1.186h45.714v5.079h-45.714v-5.079zM0 13.885h45.714v5.079h-45.714v-5.079zM0 26.583h45.714v5.079h-45.714v-5.079z"></path>
</symbol>
<symbol id="icon-eye" viewBox="0 0 49 32">
<title>eye</title>
<path d="M49.229 16.016c0 4.739-10.15 14.848-24.613 14.848-14.096 0-24.613-9.943-24.613-14.848 0-4.904 10.563-14.832 24.613-14.832 14.577 0 24.616 9.928 24.613 14.832zM24.637 3.892c-6.551 0-11.861 5.432-11.861 12.132s5.31 12.132 11.861 12.132c6.553 0 11.863-5.432 11.863-12.132s-5.311-12.132-11.863-12.132z"></path>
<path d="M24.616 8.278c-4.172 0-7.554 3.458-7.554 7.725s3.382 7.725 7.554 7.725c4.172 0 7.552-3.459 7.552-7.725s-3.381-7.725-7.552-7.725z"></path>
</symbol>
<symbol id="icon-save" viewBox="0 0 32 32">
<title>save</title>
<path d="M19 10c0.552 0 1-0.447 1-1v-4c0-0.553-0.448-1-1-1s-1 0.447-1 1v4c0 0.553 0.448 1 1 1v0zM30 28c0 1.104-0.896 2-2 2h-24c-1.104 0-2-0.896-2-2v-24c0-1.104 0.896-2 2-2h2v10c0 1.104 0.896 2 2 2h16c1.104 0 2-0.896 2-2v-10h2c1.104 0 2 0.896 2 2v24zM8 2h16v9c0 0.553-0.448 1-1 1h-14c-0.552 0-1-0.447-1-1v-9zM28 0h-24c-2.209 0-4 1.791-4 4v24c0 2.209 1.791 4 4 4h24c2.209 0 4-1.791 4-4v-24c0-2.209-1.791-4-4-4v0z"></path>
</symbol>
<symbol id="icon-unordered-list" viewBox="0 0 38 32">
<title>unordered-list</title>
<path d="M2.777 13.824c-1.444 0-2.61 1.166-2.61 2.61s1.166 2.61 2.61 2.61c1.444 0 2.61-1.166 2.61-2.61s-1.166-2.61-2.61-2.61zM2.777 1.5c-1.444 0-2.61 1.166-2.61 2.61s1.166 2.61 2.61 2.61c1.444 0 2.61-1.166 2.61-2.61s-1.166-2.61-2.61-2.61zM2.777 26.149c-1.453 0-2.61 1.174-2.61 2.61s1.175 2.61 2.61 2.61c1.435 0 2.61-1.174 2.61-2.61s-1.157-2.61-2.61-2.61zM9.41 30.536h27.94v-3.36h-27.94v3.36zM9.41 18.211h27.94v-3.36h-27.94v3.36zM9.41 2.527v3.36h27.94v-3.36h-27.94z"></path>
</symbol>
<symbol id="icon-write" viewBox="0 0 32 32">
<title>write</title>
<path fill="#00b887" style="fill: var(--color2, #00b887)" d="M6.073 30.293c-0.023 0-0.057 0.012-0.102 0.035 2.627 0 7.88 0 15.76 0 0.204 0 0.374 0.070 0.509 0.211s0.204 0.304 0.204 0.492c0 0.211-0.068 0.386-0.204 0.527s-0.306 0.211-0.509 0.211c-4.665 0-11.673 0-21.025 0 0 0-0.011 0-0.034 0 0 0-0.011 0-0.034 0-0.045 0-0.079-0.012-0.102-0.035 0 0-0.011 0-0.034 0 0 0-0.011 0-0.034 0 0 0 0 0 0 0s-0.011-0.012-0.034-0.035c-0.023 0-0.045-0.012-0.068-0.035-0.023 0-0.045-0.012-0.068-0.035 0 0-0.011-0.012-0.034-0.035s-0.057-0.059-0.102-0.105c-0.023-0.047-0.045-0.082-0.068-0.105s-0.034-0.047-0.034-0.070c0 0 0-0.012 0-0.035s-0.011-0.035-0.034-0.035c0-0.023 0-0.047 0-0.070s0-0.059 0-0.105c0 0 0 0 0 0s0-0.012 0-0.035c0 0 0-0.012 0-0.035 0 0 0-0.023 0-0.070 0 0 0-0.012 0-0.035 0 0 0-0.012 0-0.035 0 0 0.011 0 0.034 0 0 0 0-0.012 0-0.035 0.226-0.89 0.679-2.67 1.359-5.34 0.045-0.117 0.113-0.223 0.204-0.316 4.778-4.895 11.945-12.237 21.5-22.026 0.136-0.141 0.294-0.211 0.476-0.211 0.204 0 0.374 0.070 0.509 0.211s0.204 0.304 0.204 0.492c0 0.211-0.068 0.386-0.204 0.527-4.755 4.871-11.877 12.167-21.365 21.886-0.181 0.656-0.532 1.979-1.053 3.97 0.657-0.164 1.947-0.515 3.872-1.054 3.555-3.653 10.677-10.949 21.365-21.886 0.136-0.141 0.294-0.211 0.476-0.211 0.204 0 0.374 0.070 0.509 0.211s0.204 0.304 0.204 0.492c0 0.211-0.068 0.386-0.204 0.527-4.778 4.895-11.956 12.237-21.534 22.026-0.068 0.094-0.17 0.152-0.306 0.176h0zM29.374 6.58c0.023-0.023 0.068-0.070 0.136-0.141 0.091-0.094 0.181-0.199 0.272-0.316 0.023-0.023 0.068-0.070 0.136-0.141 0.679-0.679 1.019-1.499 1.019-2.459s-0.34-1.78-1.019-2.459c-0.657-0.679-1.449-1.019-2.378-1.019s-1.721 0.34-2.378 1.019c-0.136 0.141-0.328 0.34-0.577 0.597 0.793 0.82 2.389 2.459 4.789 4.918zM0.027 31.030c0 0 0 0.054 0 0.162 0 0 0-0.054 0-0.162zM0.027 30.925c0 0 0 0.071 0 0.213 0 0 0-0.071 0-0.213zM0.027 31.279c0 0 0-0.071 0-0.213 0 0 0 0.071 0 0.213zM0.184 30.855c-0.105 0-0.157 0.054-0.157 0.162 0 0 0-0.054 0-0.162 0 0 0.052 0 0.157 0z"></path>
</symbol>
<symbol id="icon-block-code" viewBox="0 0 32 32">
<title>block-code</title>
<path d="M27.193 9.6c0-7.578-5.227-9.594-7.992-9.6l-0.021 3.2c0.492 0.010 4.815 0.277 4.815 6.4 0 3.189 1.329 5.194 3.001 6.4-1.673 1.206-3.001 3.211-3.001 6.4 0 6.123-4.322 6.39-4.815 6.4l0.018 1.6 0.003 1.6c2.765-0.006 7.992-2.022 7.992-9.6 0-4.517 4.004-4.79 4.797-4.8l0.010-3.2c-0.803-0.010-4.807-0.283-4.807-4.8zM4.807 22.4c0 7.578 5.227 9.594 7.992 9.6l0.021-3.2c-0.492-0.010-4.815-0.277-4.815-6.4 0-3.189-1.329-5.194-3.001-6.4 1.673-1.206 3.001-3.211 3.001-6.4 0-6.123 4.322-6.39 4.815-6.4l-0.018-1.6-0.003-1.6c-2.765 0.006-7.992 2.022-7.992 9.6 0 4.517-4.004 4.79-4.797 4.8l-0.010 3.2c0.803 0.010 4.807 0.283 4.807 4.8z"></path>
</symbol>
<symbol id="icon-blockquote" viewBox="0 0 39 32">
<title>blockquote</title>
<path d="M30.811 32.055c-5.95 0-10.171-4.965-10.171-10.921 0-7.458 5.71-14.4 14.896-20.121l2.965 2.978c-5.707 3.726-8.937 6.953-8.937 11.918 0 6.455 8.937 8.187 8.937 8.937 0.251 3.223-2.729 7.2-7.694 7.2h0.009v0.009h-0.005zM10.464 32.055c-5.957 0-10.178-4.965-10.178-10.921 0-7.458 5.707-14.4 14.891-20.121l2.978 2.978c-5.957 3.726-8.93 6.953-8.93 11.671 0 6.453 8.937 8.183 8.937 8.937 0 3.47-2.981 7.445-7.698 7.445v0.011z"></path>
</symbol>
<symbol id="icon-bold" viewBox="0 0 30 32">
<title>bold</title>
<path d="M14.363 31.365h-13.263l0.246-2.003 1.754-0.269c1.255-0.246 1.77-0.502 1.77-1.004v-25.004c0-0.504-0.253-0.753-2.021-1.004h-1.499l-0.255-2.003h14.013c9.006 0 12.501 2.756 12.501 7.012 0 4.248-3.988 7.001-8.491 7.758v0.246c6.026 0.762 9.521 3.495 9.521 7.998 0 5.265-4.503 8.267-14.271 8.267l0.045 0.022h-0.045l-0.007-0.018zM13.613 2.331h-2.254v12.248h2.756c4.006 0 6.25-2.756 6.25-6.011 0-3.775-2.249-6.28-6.734-6.28v0.045l-0.018-0.002zM13.113 16.579h-1.754v12.519l2.744 0.515h0.493c3.741 0 6.743-2.249 6.743-6.255 0-4.754-3.508-6.757-8.267-6.757h0.040v-0.022z"></path>
</symbol>
<symbol id="icon-clipboard" viewBox="0 0 26 32">
<title>clipboard</title>
<path fill="#fff" style="fill: var(--color1, #fff)" d="M4.676 25.043h6.83v2.277h-6.83v-2.277zM4.676 20.49h4.553v2.277h-4.553v-2.277zM4.676 15.937h6.83v2.277h-6.83v-2.277zM4.676 11.383h11.383v2.277h-11.383v-2.277zM25.166 20.49h-7.968v-3.415l-5.264 4.553 5.264 4.553v-3.415h7.968v-2.277z"></path>
<path fill="#fff" style="fill: var(--color1, #fff)" d="M20.613 25.043v4.553h-18.213v-20.49h18.213v9.107h2.277v-13.546c0-1.32-1.070-2.39-2.39-2.39h-5.787c-0.476-1.363-1.761-2.276-3.205-2.276s-2.729 0.913-3.205 2.276h-5.788c-1.32 0-2.39 1.070-2.39 2.39v24.816c0 1.32 1.070 2.39 2.39 2.39h17.986c1.32 0 2.39-1.070 2.39-2.39v-4.44h-2.277zM5.379 4.553h2.788c0.294-0.009 0.572-0.135 0.771-0.35s0.304-0.502 0.291-0.796c0.002-0.662 0.292-1.291 0.795-1.722s1.168-0.621 1.823-0.522c1.128 0.241 1.935 1.237 1.935 2.39 0.064 0.578 0.557 1.011 1.138 0.999h2.709c0.431 0 0.825 0.244 1.018 0.63l0.826 1.647h-15.937l0.824-1.647c0.193-0.386 0.587-0.629 1.018-0.63z"></path>
</symbol>
<symbol id="icon-code" viewBox="0 0 43 32">
<title>code</title>
<path d="M13.35 26.22l-1.164 1.164c-0.14 0.145-0.334 0.227-0.536 0.227s-0.395-0.082-0.536-0.227l-10.851-10.851c-0.145-0.14-0.227-0.334-0.227-0.536s0.082-0.395 0.227-0.536l10.851-10.851c0.14-0.145 0.334-0.227 0.536-0.227s0.395 0.082 0.536 0.227l1.164 1.164c0.145 0.14 0.227 0.334 0.227 0.536s-0.082 0.395-0.227 0.536l-9.152 9.152 9.152 9.152c0.145 0.14 0.227 0.334 0.227 0.536s-0.082 0.395-0.227 0.536v-0.002zM27.111 1.373l-8.686 30.063c-0.11 0.391-0.516 0.62-0.908 0.513l-1.444-0.396c-0.398-0.117-0.627-0.533-0.513-0.931l8.686-30.063c0.11-0.391 0.516-0.621 0.908-0.513l1.444 0.396c0.398 0.117 0.627 0.533 0.513 0.931zM42.411 16.533l-10.851 10.851c-0.14 0.145-0.334 0.227-0.536 0.227s-0.395-0.082-0.536-0.227l-1.164-1.164c-0.145-0.14-0.227-0.334-0.227-0.536s0.082-0.395 0.227-0.536l9.152-9.152-9.152-9.152c-0.145-0.14-0.227-0.334-0.227-0.536s0.082-0.395 0.227-0.536l1.164-1.164c0.14-0.145 0.334-0.227 0.536-0.227s0.395 0.082 0.536 0.227l10.851 10.851c0.145 0.14 0.227 0.334 0.227 0.536s-0.082 0.395-0.227 0.536v0.002z"></path>
</symbol>
<symbol id="icon-heading" viewBox="0 0 34 32">
<title>heading</title>
<path d="M31.616 29.967c-0.572 0-1.434-0.023-2.585-0.068s-2.019-0.068-2.604-0.068c-0.572 0-1.43 0.023-2.575 0.068s-2.003 0.068-2.575 0.068c-0.312 0-0.553-0.133-0.722-0.4s-0.254-0.562-0.254-0.888c0-0.403 0.111-0.702 0.332-0.897s0.475-0.306 0.761-0.332c0.286-0.026 0.618-0.072 0.995-0.137s0.67-0.163 0.878-0.293c0.429-0.273 0.644-1.183 0.644-2.731l-0.020-7.627c0-0.273-0.006-0.475-0.020-0.605-0.169-0.052-0.494-0.078-0.975-0.078h-13.167c-0.494 0-0.826 0.026-0.995 0.078-0.013 0.13-0.020 0.332-0.020 0.605l-0.020 7.237c0 1.847 0.241 2.913 0.722 3.199 0.208 0.13 0.52 0.215 0.936 0.254s0.787 0.062 1.112 0.068c0.325 0.006 0.618 0.104 0.878 0.293s0.39 0.484 0.39 0.888c0 0.338-0.081 0.65-0.244 0.936s-0.4 0.429-0.712 0.429c-0.611 0-1.518-0.023-2.721-0.068s-2.103-0.068-2.702-0.068c-0.559 0-1.391 0.023-2.497 0.068s-1.931 0.068-2.477 0.068c-0.299 0-0.53-0.137-0.693-0.41s-0.244-0.566-0.244-0.878c0-0.39 0.101-0.683 0.302-0.878s0.436-0.309 0.702-0.341c0.267-0.032 0.575-0.081 0.927-0.146s0.624-0.163 0.819-0.293c0.429-0.299 0.644-1.229 0.644-2.789l-0.019-1.112v-15.859c0-0.039 0.003-0.208 0.010-0.507s0.006-0.536 0-0.712c-0.006-0.176-0.016-0.426-0.029-0.751s-0.036-0.598-0.068-0.819c-0.033-0.221-0.075-0.458-0.127-0.712s-0.124-0.458-0.215-0.614c-0.091-0.156-0.195-0.273-0.312-0.351-0.195-0.13-0.488-0.208-0.878-0.234s-0.735-0.039-1.034-0.039c-0.299 0-0.566-0.091-0.8-0.273s-0.351-0.475-0.351-0.878c0-0.338 0.078-0.65 0.234-0.936s0.39-0.429 0.702-0.429c0.598 0 1.499 0.023 2.702 0.068s2.103 0.068 2.702 0.068c0.546 0 1.369-0.023 2.468-0.068s1.921-0.068 2.468-0.068c0.325 0 0.569 0.143 0.732 0.429s0.244 0.598 0.244 0.936c0 0.39-0.111 0.673-0.332 0.849s-0.471 0.27-0.751 0.283c-0.28 0.013-0.601 0.039-0.966 0.078s-0.644 0.124-0.839 0.254c-0.455 0.273-0.683 1.313-0.683 3.121l0.020 6.242c0 0.273 0.007 0.481 0.020 0.624 0.169 0.039 0.423 0.059 0.761 0.059h13.635c0.325 0 0.572-0.020 0.741-0.059 0.013-0.143 0.020-0.351 0.020-0.624l0.020-6.242c0-1.808-0.228-2.848-0.683-3.121-0.234-0.143-0.614-0.224-1.141-0.244s-0.956-0.104-1.287-0.254c-0.332-0.15-0.497-0.471-0.497-0.966 0-0.338 0.081-0.65 0.244-0.936s0.406-0.429 0.732-0.429c0.572 0 1.43 0.023 2.575 0.068s2.003 0.068 2.575 0.068c0.559 0 1.398-0.023 2.516-0.068s1.957-0.068 2.516-0.068c0.325 0 0.569 0.143 0.731 0.429s0.244 0.598 0.244 0.936c0 0.39-0.114 0.676-0.341 0.858s-0.488 0.276-0.78 0.283c-0.293 0.006-0.627 0.026-1.005 0.059s-0.663 0.114-0.858 0.244c-0.455 0.299-0.683 1.346-0.683 3.141l0.020 18.395c0 1.548 0.221 2.458 0.663 2.731 0.208 0.13 0.507 0.218 0.897 0.263s0.738 0.075 1.044 0.088c0.306 0.013 0.575 0.114 0.81 0.302s0.351 0.478 0.351 0.868c0 0.338-0.078 0.65-0.234 0.936s-0.39 0.429-0.702 0.429z"></path>
</symbol>
<symbol id="icon-image" viewBox="0 0 36 32">
<title>image</title>
<path d="M33.525 2.235c0.001 0.001 0.003 0.002 0.004 0.004v26.816c-0.001 0.001-0.002 0.003-0.004 0.004h-31.286c-0.001-0.001-0.003-0.002-0.004-0.004v-26.816c0.001-0.001 0.002-0.003 0.004-0.004h31.286zM33.529 0h-31.294c-1.229 0-2.235 1.006-2.235 2.235v26.824c0 1.229 1.006 2.235 2.235 2.235h31.294c1.229 0 2.235-1.006 2.235-2.235v-26.824c0-1.229-1.006-2.235-2.235-2.235z"></path>
<path d="M29.059 7.824c0 1.852-1.501 3.353-3.353 3.353s-3.353-1.501-3.353-3.353c0-1.852 1.501-3.353 3.353-3.353s3.353 1.501 3.353 3.353z"></path>
<path d="M31.294 26.824h-26.824v-4.471l7.823-13.412 8.941 11.177h2.236l7.823-6.707z"></path>
</symbol>
<symbol id="icon-italic" viewBox="0 0 13 32">
<title>italic</title>
<path d="M5.022 31.727c-1.14 0-4.337-1.35-4.108-1.799l4.337-16.201-1.369-0.451-2.968 3.152-0.914-0.901c1.143-2.474 3.652-5.626 5.935-5.626 1.14 0 4.793 1.127 4.564 1.802l-4.564 16.425 1.14 0.451 3.423-2.251 0.914 0.901c-1.369 2.249-4.108 4.5-6.391 4.5zM10.044 6.976c-2.054 0-2.968-1.35-2.968-2.926 0-2.251 1.598-4.050 3.195-4.050 1.827 0 2.968 1.35 2.968 3.15-0.229 2.251-1.598 3.827-3.195 3.827z"></path>
</symbol>
<symbol id="icon-link" viewBox="0 0 36 32">
<title>link</title>
<path d="M0.424 21.569c0-1.22 0.265-2.354 0.795-3.404l0.042-0.038v-0.042c0.030 0 0.042-0.017 0.042-0.042 0-0.030 0-0.042 0.042-0.042 0.259-0.543 0.657-1.103 1.222-1.707l6.766-6.744c0-0.017 0-0.032 0.021-0.042 0.021-0.013 0.021-0.028 0.021-0.042 0.933-0.876 1.93-1.485 3.054-1.809-1.336 1.506-2.184 3.181-2.524 5.005-0.085 0.509-0.127 1.103-0.127 1.718 0 0.297 0.021 0.509 0.042 0.7l-4.159 4.223c-0.403 0.403-0.67 0.863-0.797 1.385-0.087 0.285-0.127 0.582-0.121 0.88 0 0.329 0.042 0.666 0.127 1.012 0.159 0.445 0.424 0.855 0.797 1.23l2.727 2.778c0.573 0.585 1.315 0.882 2.184 0.882 0.891 0 1.654-0.297 2.248-0.891l2.609-2.651 1.675-1.654 2.439-2.46c0.17-0.191 0.403-0.467 0.594-0.848 0.218-0.424 0.318-0.891 0.318-1.421 0-0.339-0.042-0.657-0.119-0.954l-0.042-0.042v-0.042l-0.148-0.297c0-0.021-0.028-0.064-0.085-0.127l-0.127-0.276-0.042-0.042c0-0.042-0.021-0.064-0.042-0.106-0.080-0.131-0.182-0.246-0.303-0.339l-1.018-1.060c0-0.089 0.032-0.212 0.085-0.318l0.127-0.255 2.481-2.418 0.184-0.191 1.188 1.209c0.049 0.085 0.17 0.212 0.339 0.382l0.106 0.085c0.013 0.038 0.042 0.076 0.074 0.127l0.085 0.115c0.021 0.021 0.042 0.053 0.064 0.085 0.064 0.049 0.085 0.098 0.085 0.123 0.085 0.085 0.17 0.191 0.212 0.297l0.042 0.042c0 0.038 0.021 0.064 0.051 0.085l0.223 0.418v0.042c0.208 0.333 0.403 0.814 0.63 1.442 0.052 0.176 0.080 0.358 0.085 0.541 0.127 0.445 0.17 0.94 0.17 1.485 0 0.467-0.042 0.912-0.127 1.336-0.255 1.506-0.933 2.829-2.015 3.955l-1.4 1.421-2.057 2.061-3.296 3.33c-1.438 1.425-3.19 2.159-5.247 2.159s-3.818-0.721-5.275-2.176l-2.749-2.774c-0.942-0.957-1.611-2.148-1.936-3.451-0.133-0.614-0.205-1.239-0.216-1.866v-0.021l-0.025 0.021v0.023zM11.845 14.288c0-0.388 0.049-0.834 0.148-1.336 0.276-1.563 0.95-2.889 2.028-3.966l1.4-1.404 2.057-2.085 3.309-3.309c1.44-1.468 3.179-2.189 5.236-2.189s3.818 0.721 5.266 2.168l2.736 2.787c0.933 0.929 1.578 2.070 1.936 3.432 0.142 0.679 0.216 1.302 0.216 1.845 0 1.224-0.261 2.354-0.795 3.404l-0.042 0.021v0.042l-0.042 0.085c-0.314 0.573-0.742 1.145-1.273 1.718l-6.759 6.766c0 0.021 0 0.021-0.021 0.042-0.021 0-0.021 0.021-0.021 0.042-0.92 0.891-1.943 1.485-3.026 1.76 1.336-1.421 2.184-3.096 2.524-5.005 0.085-0.551 0.127-1.124 0.127-1.718 0-0.297-0.021-0.551-0.042-0.742l4.221-4.178c0.382-0.445 0.636-0.891 0.742-1.379 0.085-0.255 0.106-0.551 0.106-0.891s-0.042-0.657-0.127-1.018c-0.148-0.403-0.403-0.806-0.764-1.23l-2.757-2.757c-0.601-0.584-1.41-0.904-2.248-0.891-0.891 0-1.633 0.297-2.248 0.87l-2.564 2.674-4.129 4.142c-0.187 0.159-0.394 0.445-0.624 0.848-0.191 0.494-0.297 0.976-0.297 1.421 0 0.339 0.042 0.657 0.127 0.959l0.042 0.042v0.049l0.127 0.305c0 0.013 0.021 0.055 0.106 0.127l0.127 0.265 0.042 0.042c0 0.021 0 0.028 0.021 0.042 0 0.011 0.021 0.021 0.021 0.042 0.106 0.17 0.212 0.284 0.297 0.339l0.997 1.060c0 0.085-0.042 0.197-0.085 0.318l-0.127 0.255-2.439 2.439-0.212 0.17-1.188-1.188c-0.12-0.139-0.247-0.272-0.382-0.397-0.042-0.021-0.042-0.064-0.042-0.085l-0.042-0.042c-0.088-0.070-0.161-0.158-0.212-0.259-0.064-0.051-0.106-0.091-0.106-0.127l-0.212-0.318-0.042-0.042-0.042-0.085-0.168-0.356v-0.042c-0.236-0.472-0.436-0.962-0.6-1.463-0.051-0.177-0.080-0.361-0.085-0.545-0.132-0.484-0.199-0.983-0.197-1.485v0.015l0.002-0.006z"></path>
</symbol>
<symbol id="icon-ordered-list" viewBox="0 0 36 32">
<title>ordered-list</title>
<path d="M35.654 26.654h-25.269c-0.19 0-0.346 0.156-0.346 0.346v2.423c0 0.19 0.156 0.346 0.346 0.346h25.269c0.19 0 0.346-0.156 0.346-0.346v-2.423c0-0.19-0.156-0.346-0.346-0.346zM35.654 2.077h-25.269c-0.19 0-0.346 0.156-0.346 0.346v2.423c0 0.19 0.156 0.346 0.346 0.346h25.269c0.19 0 0.346-0.156 0.346-0.346v-2.423c0-0.19-0.156-0.346-0.346-0.346zM35.654 14.365h-25.269c-0.19 0-0.346 0.156-0.346 0.346v2.423c0 0.19 0.156 0.346 0.346 0.346h25.269c0.19 0 0.346-0.156 0.346-0.346v-2.423c0-0.19-0.156-0.346-0.346-0.346zM5.192 24.577h-5.019c-0.095 0-0.173 0.078-0.173 0.173v1.471c0 0.095 0.078 0.173 0.173 0.173h3.133v0.887h-1.545c-0.095 0-0.173 0.078-0.173 0.173v1.471c0 0.095 0.078 0.173 0.173 0.173h1.545v0.93h-3.133c-0.095 0-0.173 0.078-0.173 0.173v1.471c0 0.095 0.078 0.173 0.173 0.173h5.019c0.095 0 0.173-0.078 0.173-0.173v-6.923c0-0.095-0.078-0.173-0.173-0.173zM0.173 1.904h1.644v5.192c0 0.095 0.078 0.173 0.173 0.173h1.731c0.095 0 0.173-0.078 0.173-0.173v-6.75c0-0.19-0.156-0.346-0.346-0.346h-3.375c-0.095 0-0.173 0.078-0.173 0.173v1.558c0 0.095 0.078 0.173 0.173 0.173zM5.192 12.288h-5.019c-0.095 0-0.173 0.078-0.173 0.173v1.558c0 0.095 0.078 0.173 0.173 0.173h2.96l-3.042 3.362c-0.056 0.065-0.091 0.147-0.091 0.234v1.597c0 0.095 0.078 0.173 0.173 0.173h5.019c0.095 0 0.173-0.078 0.173-0.173v-1.558c0-0.095-0.078-0.173-0.173-0.173h-2.96l3.042-3.362c0.056-0.065 0.091-0.147 0.091-0.234v-1.597c0-0.095-0.078-0.173-0.173-0.173z"></path>
</symbol>
</defs>
</svg>
