<?xml version="1.0" encoding="UTF-8"?>
<svg width="26px" height="26px" viewBox="0 0 26 26" version="1.1" xmlns="http://www.w3.org/2000/svg" xmlns:xlink="http://www.w3.org/1999/xlink">
    <!-- Generator: Sketch 61.2 (89653) - https://sketch.com -->
    <title>logo</title>
    <desc>Created with Sketch.</desc>
    <defs>
        <linearGradient x1="22.3712241%" y1="22.4717598%" x2="73.1214253%" y2="78.5881116%" id="linearGradient-1">
            <stop stop-color="#00BC87" offset="0%"></stop>
            <stop stop-color="#449D69" offset="100%"></stop>
        </linearGradient>
    </defs>
    <g id="页面1" stroke="none" stroke-width="1" fill="none" fill-rule="evenodd">
        <g id="写作工具整体部分---基础版本---折叠" transform="translate(-20.000000, -16.000000)" fill-rule="nonzero">
            <g id="side" transform="translate(20.000000, 16.000000)">
                <g id="logo">
                    <rect id="Rectangle" fill-opacity="0.01" fill="#FFFFFF" x="0" y="0" width="26" height="26" rx="6"></rect>
                    <g id="Group-23-Copy-2" transform="translate(3.510000, 0.494000)">
                        <path d="M20.4201143,8.35819282 L18.5071294,7.21760412 C18.1889111,6.42634521 17.7161156,5.89206171 17.2932942,5.420491 L17.2455247,5.36684217 C16.2386906,4.24149072 15.1213742,3.71391946 13.9205225,3.79750384 C12.4061068,3.90333165 10.8880166,4.99519545 9.51641948,6.95401446 C9.22759773,6.83618303 8.93730614,6.72300606 8.64848439,6.61129892 C6.33325592,5.71200744 4.14614769,4.86261672 2.88527785,1.42360461 L2.36912227,0.0157271895 L2.189068,1.50456779 C2.00754389,3.00310929 1.97643247,4.29680536 2.06070277,5.42637033 C1.58325274,4.8715092 1.18100904,4.21527874 0.847602424,3.43614593 L0.319443225,2.20349684 L0.158741726,3.53474709 C-0.777785462,11.2802164 2.90389571,12.9506791 6.15222176,14.4246744 C6.15418154,14.4256544 6.15614132,14.4261443 6.15810108,14.4271241 C5.83449334,15.653453 5.65688878,17.3398389 5.48491858,18.9767404 C5.40260805,19.7584455 5.30976374,20.6447534 5.19266722,21.4658989 C5.03637521,21.491131 4.88326784,21.5141583 4.7333451,21.5374306 C3.45385739,21.733653 2.52957879,21.8750017 2.26843886,22.4979651 C2.05310864,23.0116709 2.44873811,23.5599178 2.57881812,23.7399721 C2.98155177,24.2982628 3.57242375,25.0023118 4.22796828,25.0023118 C4.30513439,25.0023118 4.38352537,24.9925129 4.46265126,24.9714453 C5.18874768,24.7779176 5.55620537,23.766674 5.8278791,22.090577 C6.39866339,21.9896486 6.99761945,21.8607934 7.59731041,21.6706953 C12.7556816,20.0342836 13.7404682,16.4204596 14.6096281,13.2323967 C15.2186281,10.9977639 15.7536465,9.03774459 17.650708,8.11885537 C18.1962603,7.91062934 20.4201143,8.35819282 20.4201143,8.35819282 L20.4201143,8.35819282 Z" id="Path" fill="url(#linearGradient-1)"></path>
                        <path d="M0.761372352,4.85480212 C1.16680068,5.53023836 1.64278088,6.10298243 2.19715206,6.58827156 C2.82329999,10.4438827 4.97292752,12.1060164 6.93172203,13.6174923 C7.35699307,13.9452646 7.76928061,14.2637279 8.15241651,14.5941949 C7.6051495,14.2928796 7.02530126,14.0295349 6.4498625,13.7679051 C3.46880067,12.4154158 0.391954879,11.0198114 0.761372352,4.85480212 Z" id="Path" fill="#FFFFFF"></path>
                    </g>
                </g>
            </g>
        </g>
    </g>
</svg>