<?xml version="1.0" encoding="UTF-8"?>
<svg width="19px" height="23px" viewBox="0 0 19 23" version="1.1" xmlns="http://www.w3.org/2000/svg" xmlns:xlink="http://www.w3.org/1999/xlink">
    <!-- Generator: Sketch 49.3 (51167) - http://www.bohemiancoding.com/sketch -->
    <title>icon_clipboard</title>
    <desc>Created with Sketch.</desc>
    <defs></defs>
    <g id="v1.01" stroke="none" stroke-width="1" fill="none" fill-rule="evenodd">
        <g id="编辑模式/已经存在解释/文件级别/Hover" transform="translate(-1475.000000, -737.000000)" fill="#FFFFFF" fill-rule="nonzero">
            <g id="页面内容" transform="translate(442.000000, 90.000000)">
                <g id="Content" transform="translate(285.000000, 0.000000)">
                    <g id="代码块(pre)" transform="translate(23.088319, 641.000000)">
                        <g id="icon_clipboard" transform="translate(725.000000, 6.000000)">
                            <path d="M3.27272727,18 L8.18181818,18 L8.18181818,19.6363636 L3.27272727,19.6363636 L3.27272727,18 Z M3.27272727,14.7272727 L6.54545455,14.7272727 L6.54545455,16.3636364 L3.27272727,16.3636364 L3.27272727,14.7272727 Z M3.27272727,11.4545455 L8.18181818,11.4545455 L8.18181818,13.0909091 L3.27272727,13.0909091 L3.27272727,11.4545455 Z M3.27272727,8.18181818 L11.4545455,8.18181818 L11.4545455,9.81818182 L3.27272727,9.81818182 L3.27272727,8.18181818 Z M18,14.7272727 L12.2727273,14.7272727 L12.2727273,12.2727273 L8.48945455,15.5454545 L12.2727273,18.8181818 L12.2727273,16.3636364 L18,16.3636364 L18,14.7272727 Z" id="Shape"></path>
                            <path d="M14.7272727,18 L14.7272727,21.2727273 L1.63636364,21.2727273 L1.63636364,6.54545455 L14.7272727,6.54545455 L14.7272727,13.0909091 L16.3636364,13.0909091 L16.3636364,3.35454545 C16.3636364,2.40561984 15.5943802,1.63636364 14.6454545,1.63636364 L10.4858182,1.63636364 C10.1439509,0.656680741 9.2198456,0.00039972236 8.18222727,0.00039972236 C7.14460895,0.00039972236 6.22050361,0.656680741 5.87863636,1.63636364 L1.71818182,1.63636364 C0.769256203,1.63636364 0,2.40561984 0,3.35454545 L0,21.1909091 C0,22.1398347 0.769256203,22.9090909 1.71818182,22.9090909 L14.6454545,22.9090909 C15.5943802,22.9090909 16.3636364,22.1398347 16.3636364,21.1909091 L16.3636364,18 L14.7272727,18 Z M3.77836364,3.27272727 L5.78209091,3.27272727 C5.99323194,3.26659505 6.19304731,3.17585375 6.33660779,3.0209069 C6.48016828,2.86596006 6.5554244,2.65981283 6.54545455,2.44881818 C6.54697051,1.97288431 6.75562098,1.52119249 7.11701202,1.21149608 C7.47840306,0.901799673 7.95672155,0.764788961 8.42727273,0.836181818 C9.23816049,1.00910842 9.81788777,1.72524212 9.81818182,2.55436364 C9.86384287,2.96950608 10.2188028,3.28116089 10.6363636,3.27272727 L12.5836364,3.27272727 C12.8934538,3.27289272 13.1766026,3.44803957 13.3150909,3.72518182 L13.9090909,4.90909091 L2.45454545,4.90909091 L3.04690909,3.72518182 C3.18539744,3.44803957 3.46854624,3.27289272 3.77836364,3.27272727 Z" id="Shape"></path>
                        </g>
                    </g>
                </g>
            </g>
        </g>
    </g>
</svg>